<?xml version="1.0" encoding="UTF-8" standalone="no"?>
<!-- Created with Inkscape (http://www.inkscape.org/) -->

<svg
   width="116.68698mm"
   height="29.232599mm"
   viewBox="0 0 116.68698 29.232599"
   version="1.1"
   id="svg1"
   inkscape:version="1.3 (0e150ed6c4, 2023-07-21)"
   sodipodi:docname="AI Storytime.svg"
   xmlns:inkscape="http://www.inkscape.org/namespaces/inkscape"
   xmlns:sodipodi="http://sodipodi.sourceforge.net/DTD/sodipodi-0.dtd"
   xmlns="http://www.w3.org/2000/svg"
   xmlns:svg="http://www.w3.org/2000/svg">
  <sodipodi:namedview
     id="namedview1"
     pagecolor="#ffffff"
     bordercolor="#999999"
     borderopacity="1"
     inkscape:showpageshadow="0"
     inkscape:pageopacity="0"
     inkscape:pagecheckerboard="0"
     inkscape:deskcolor="#d1d1d1"
     inkscape:document-units="mm"
     inkscape:zoom="0.72426347"
     inkscape:cx="396.26464"
     inkscape:cy="561.25984"
     inkscape:window-width="1920"
     inkscape:window-height="1009"
     inkscape:window-x="-8"
     inkscape:window-y="-8"
     inkscape:window-maximized="1"
     inkscape:current-layer="layer1" />
  <defs
     id="defs1" />
  <g
     inkscape:label="Layer 1"
     inkscape:groupmode="layer"
     id="layer1"
     transform="translate(-26.096984,-107.54696)">
    <g
       id="text1"
       style="font-size:96.0003px;font-family:'Berlin Sans FB';-inkscape-font-specification:'Berlin Sans FB, Normal';white-space:pre;fill:#242314;fill-rule:evenodd;stroke:#5b2617;stroke-width:0;stroke-linecap:round;paint-order:markers fill stroke"
       transform="scale(0.26458333)"
       aria-label="AI Storytime">
      <path
         style="font-family:'High Tower Text';-inkscape-font-specification:'High Tower Text, Normal'"
         d="m 165.62912,474.54008 q -0.28125,1.26563 -0.60937,1.5 -0.28125,0.1875 -1.31251,-0.0937 -6.70314,-1.21875 -19.59381,-0.28125 -2.4375,0.1875 -2.67188,-0.9375 -0.23438,-1.3125 1.54688,-2.01563 5.06251,-2.06251 5.06251,-3.84376 0,-0.70313 -0.5625,-2.01564 -3.46876,-8.2969 -5.76564,-13.35941 -3.32814,0.1875 -11.71879,0.1875 -6.93752,0 -11.81253,-0.375 -1.64063,4.03126 -4.59377,11.25003 -0.65625,1.64063 -0.65625,2.95314 0,2.625 2.85938,3.84376 4.40627,1.875 4.31252,2.85938 -0.0937,1.59376 -2.95314,1.26563 -8.81252,-0.9375 -16.31255,0.5625 -1.968753,0.42188 -2.203128,-1.40625 -0.187501,-1.21875 3.046888,-2.62501 3.46876,-1.45313 5.85939,-6.70315 9.14065,-19.82818 11.81254,-26.06258 6.46877,-14.95317 9.14065,-24.42195 0.375,-1.45313 3.70314,-2.71875 0.79687,-0.28126 2.01563,2.71875 10.12503,24.37508 22.68757,52.12517 2.01563,4.40626 6.79689,5.85939 2.15626,0.60938 1.92188,1.73438 z m -25.4532,-24.7032 q -3.09376,-7.03127 -9.65628,-21.79695 -0.375,-0.79687 -0.84375,-0.79687 -0.46875,0 -0.79688,0.79687 l -8.95315,21.60945 q 5.01564,0.375 11.25003,0.375 3.84376,0 9.00003,-0.1875 z m 59.57831,-35.01574 q 0,1.17188 -2.53126,1.92188 -5.67189,1.68751 -5.67189,4.40627 v 45.60951 q 0,4.40627 5.20314,5.34377 2.57814,0.46875 2.57814,1.82813 0,1.17188 -0.46876,1.45313 -0.42187,0.28125 -2.39063,0.1875 -12.37504,-0.51562 -19.12506,0 -1.73438,0.14063 -2.01563,-0.65625 -0.0937,-0.32813 -0.0937,-0.98438 0,-0.9375 2.10938,-1.40625 3.93751,-0.89063 4.54689,-1.26563 1.50001,-0.9375 1.50001,-3.84376 v -45.98452 q 0,-3.89064 -5.25002,-4.78127 -2.20313,-0.375 -2.20313,-1.35938 0,-1.35937 0.32812,-1.64063 0.375,-0.32812 1.68751,-0.1875 9.14065,0.98438 18.89068,-0.1875 1.82813,-0.23437 2.15626,-0.14062 0.75,0.23437 0.75,1.6875 z"
         id="path5" />
      <path
         style="font-family:Pristina;-inkscape-font-specification:'Pristina, Normal'"
         d="m 291.39515,418.24303 q -1.82813,6.42189 -4.96877,11.15628 -1.40625,2.10939 -2.67188,2.10939 -1.21876,0 -4.26564,-2.01564 -0.9375,-0.60937 -0.9375,-1.26562 0,-0.98438 1.64063,-1.40626 1.21875,-0.375 2.76563,-4.26564 1.45313,-3.70313 1.45313,-5.81252 0,-2.20313 -1.73438,-2.20313 -0.60938,0 -1.54688,0.1875 -1.82813,0.28125 -7.87502,2.48439 -0.70313,0.23437 -1.26563,0.23437 -1.40626,0 -1.40626,-0.9375 0,-0.89063 1.45313,-1.59376 5.25002,-2.625 10.35941,-4.40626 1.64063,-0.60938 2.34376,-0.60938 1.07812,0 2.8125,3.00001 2.62501,0.79688 3.23439,1.17188 1.03125,0.60938 1.03125,1.87501 0,0.89062 -0.42187,2.29688 z m -14.01567,43.03138 q 0,8.4844 -8.62503,13.64067 -2.48438,3.89064 -6.42189,3.84376 -6.9844,-0.0937 -15.56255,-6.23439 -7.3594,-5.25002 -10.17191,-10.12503 -2.67188,-4.54689 -2.67188,-5.71877 0,-1.45313 2.10938,-3.28126 1.96876,-1.73438 3.09376,-1.73438 1.07813,0 1.07813,1.40625 0,0.60938 -0.23438,1.50001 2.48438,6.75002 10.50003,12.56254 8.01565,5.81251 14.5313,5.76564 5.76564,-0.0469 5.76564,-7.87503 0,-4.31251 -6.75002,-17.20317 -6.70314,-12.93754 -6.70314,-18.51569 0,-3.65626 2.0625,-6.51564 1.73438,-2.39063 6.09377,-5.67189 0.79688,-0.60938 1.59376,-0.60938 1.26563,0 1.26563,1.07813 0,0.75 -0.84376,1.54688 -3.60938,3.42188 -3.60938,8.34377 0,5.48439 6.75002,18.09381 6.75002,12.60941 6.75002,15.70317 z m 34.35947,-45.60951 q 1.3125,0.70312 1.3125,1.59375 0,0.60938 -0.89062,0.60938 -0.1875,0 -0.60938,-0.0469 -0.375,-0.0937 -0.5625,-0.0937 -1.78126,0 -4.31252,3.89064 -2.25,3.46876 -6.23439,15.0938 -0.375,1.03125 -0.28125,1.21875 0.14062,0.32813 1.21875,0.375 2.76564,0.23438 7.40628,-0.1875 1.59375,-0.14062 1.59375,1.35938 0,1.03125 -1.21875,1.26563 -0.98438,0.14062 -10.35941,0.84375 -5.62502,16.45318 -6.84377,27.84384 -0.0469,0.60937 -0.0469,1.07813 0,1.59375 0.79688,1.59375 1.26563,0 7.64065,-6.14064 0.75,-0.75001 1.45313,-0.75001 0.60938,0 0.75,0.51563 0.14063,0.5625 -0.42188,1.31251 -3.79688,5.01564 -7.45314,8.53127 -1.54688,1.45313 -2.57814,1.45313 -1.03125,0 -3.18751,-1.64063 -2.67188,-0.70313 -2.67188,-2.81251 0,-0.32812 0.0937,-0.75 1.73438,-12.09379 6.7969,-29.76572 -2.48439,-0.32812 -4.50002,-0.65625 -0.89062,-0.14062 -0.89062,-1.125 0,-1.07813 0.9375,-1.31251 0.9375,-0.23437 3.46876,-1.03125 1.54688,-0.51563 3.00001,-1.40625 5.01564,-15.51568 7.87502,-20.10944 1.64063,-2.62501 3.51564,-2.62501 1.78125,0 5.20314,1.87501 z m 26.01571,30.14071 q -0.0937,4.17189 -2.01563,11.06254 -3.04688,10.87503 -8.62503,16.87505 -2.95313,3.18751 -6.56252,3.18751 -1.40625,0 -3.60938,-0.60938 -4.40627,-0.28125 -7.1719,-2.76563 -3.00001,-2.71876 -2.81251,-6.9844 0.1875,-4.96876 3.42189,-13.87504 3.56251,-9.70315 7.40627,-13.96879 1.82813,-2.06251 3.00001,-2.06251 1.59375,0 5.15627,3.28126 0.98437,-0.46875 4.03126,-1.73438 1.54688,-0.51563 2.34375,-0.51563 1.82814,0 4.07814,3.42189 1.45313,2.10938 1.35938,4.68751 z m -5.39064,1.35938 q 0.32813,-3.14063 0.32813,-3.98438 0,-1.96876 -1.21876,-1.96876 -0.46875,0 -1.21875,0.1875 l -7.26565,2.95314 q -1.26563,0.51562 -1.45313,0.51562 -0.375,0 -0.75,-0.89063 -2.71876,3.32814 -5.06252,9.60941 -1.82813,4.92189 -2.53125,8.81253 -0.51563,2.625 -0.51563,4.78126 0,7.21877 4.45314,7.03127 1.78125,-0.0469 3.84376,-1.40625 3.93751,-2.67189 7.3594,-10.68753 3.28126,-7.5469 4.03126,-14.95318 z m 38.34387,-6.93752 q 0,6.14065 -1.64063,11.71879 -0.51562,1.6875 -1.40625,1.6875 -0.65625,0 -2.90626,-1.875 -1.125,-0.9375 -0.5625,-2.67189 1.3125,-4.26563 1.3125,-6.84377 0,-0.89062 -0.375,-0.89062 -0.5625,0 -1.82813,1.6875 -9.75003,12.70317 -14.57817,28.50009 -1.54688,5.01564 -2.62501,5.01564 -0.42188,0 -3.70314,-1.64063 -1.59375,-0.79688 -1.07812,-3.09376 3.70313,-16.2188 7.96877,-27.37508 -3.46876,3.65626 -4.40626,5.01564 -0.375,0.5625 -1.03126,0.5625 -0.79687,0 -0.79687,-0.70313 0,-0.42188 0.375,-0.9375 2.29688,-2.76564 6.14064,-8.43753 1.17188,-2.06251 2.34376,-2.06251 0.84375,0 3.42188,1.31251 1.45313,0.75 0.46876,2.01563 -1.03126,1.35938 -3.89064,9.60941 -2.71876,8.01564 -3.75001,12.56253 6.37502,-14.20316 14.48442,-25.0782 1.54688,-2.06251 2.48438,-2.06251 0.84375,0 2.29688,1.12501 1.96876,0.23437 2.48438,0.60938 0.79688,0.5625 0.79688,2.25 z m 34.92198,2.81251 q -6.51564,30.04697 -12.23441,44.95327 -11.06253,28.96884 -25.40633,28.96884 -8.39065,0 -18.04693,-9.14066 -0.84375,-0.79688 -0.84375,-1.6875 0,-1.40626 1.3125,-1.40626 0.65625,0 1.26563,0.51563 7.64065,6.51564 13.64067,6.51564 11.01566,0 20.01569,-18.37505 7.07814,-14.39067 12.32816,-38.62512 0.32812,-1.73438 1.07813,-5.29689 -4.92189,8.01565 -11.01566,15.79692 -5.8594,7.50002 -9.23441,10.31253 -1.875,1.54688 -3,1.54688 -0.89063,0 -1.82814,-0.98438 -0.98437,-1.26563 -2.01563,-2.48438 -0.46875,-0.5625 -0.46875,-1.03125 0,-0.0469 0,-0.0937 0.0937,-0.5625 0.84375,-0.79688 2.25001,-3.04688 4.21877,-13.17192 1.5,-7.96877 2.0625,-15.14067 0.0937,-1.6875 -0.42187,-1.6875 -0.14063,0 -2.20313,1.6875 -3.28126,2.76564 -3.56252,2.76564 -0.65625,0 -0.65625,-0.65626 0,-0.32812 0.28125,-0.65625 0.79688,-0.98438 3.56251,-4.92189 2.48439,-3.51563 3.32814,-3.51563 0.65625,0 1.78126,0.5625 2.39063,-0.375 2.67188,-0.375 1.59375,0 1.59375,2.4375 0,4.07814 -2.34375,15.98443 -2.34376,11.85941 -3.84377,15.32817 4.68752,-3.70314 12.18754,-14.53129 7.31252,-10.54691 9.09378,-15.89068 0.0937,-3.14063 1.35938,-3.14063 0.98438,0 3.65626,2.01563 1.50001,1.125 0.84375,4.21876 z m 31.21885,-27.37508 q 1.31251,0.70312 1.31251,1.59375 0,0.60938 -0.89063,0.60938 -0.1875,0 -0.60938,-0.0469 -0.375,-0.0937 -0.5625,-0.0937 -1.78126,0 -4.31251,3.89064 -2.25001,3.46876 -6.2344,15.0938 -0.375,1.03125 -0.28125,1.21875 0.14063,0.32813 1.21875,0.375 2.76564,0.23438 7.40628,-0.1875 1.59375,-0.14062 1.59375,1.35938 0,1.03125 -1.21875,1.26563 -0.98438,0.14062 -10.35941,0.84375 -5.62502,16.45318 -6.84377,27.84384 -0.0469,0.60937 -0.0469,1.07813 0,1.59375 0.79688,1.59375 1.26563,0 7.64065,-6.14064 0.75,-0.75001 1.45313,-0.75001 0.60938,0 0.75,0.51563 0.14063,0.5625 -0.42187,1.31251 -3.79689,5.01564 -7.45315,8.53127 -1.54688,1.45313 -2.57813,1.45313 -1.03126,0 -3.18751,-1.64063 -2.67189,-0.70313 -2.67189,-2.81251 0,-0.32812 0.0937,-0.75 1.73438,-12.09379 6.7969,-29.76572 -2.48438,-0.32812 -4.50002,-0.65625 -0.89062,-0.14062 -0.89062,-1.125 0,-1.07813 0.9375,-1.31251 0.9375,-0.23437 3.46876,-1.03125 1.54688,-0.51563 3.00001,-1.40625 5.01564,-15.51568 7.87502,-20.10944 1.64063,-2.62501 3.51564,-2.62501 1.78126,0 5.20314,1.87501 z m 15.75004,7.40627 q 0.75,0.5625 0.75,1.26563 0,1.35938 -4.03126,4.21876 -2.67188,1.82813 -5.15626,1.31251 -1.40626,-0.28126 -2.43751,-1.03126 -0.32813,-0.28125 -0.51563,-0.5625 -0.14062,-0.32813 -0.0469,-0.51563 0.14062,-0.1875 0.5625,-0.0937 4.31251,-3.75001 5.67189,-5.39064 1.07813,-1.21875 1.54688,-1.21875 0.84375,0 3.65626,2.01563 z m -6.60939,20.53131 q -1.12501,6.32815 -5.8594,21.04694 1.35938,-1.21875 3.75001,-4.45314 0.32813,-0.42187 0.65626,-0.42187 0.75,0 0.1875,1.3125 -0.23438,0.51563 -3.93752,6.4219 -2.8125,4.50001 -4.12501,7.96877 -0.42187,1.07813 -1.54688,1.07813 -1.125,0 -3.04688,-1.07813 -1.21876,-0.65625 -1.21876,-0.98438 0,-0.28125 0.51563,-1.21875 2.53126,-4.45314 5.62502,-14.9063 2.95313,-10.12503 3.32813,-15.04692 0.14063,-2.10938 -0.42187,-2.10938 -0.42188,0 -1.50001,1.03125 l -2.90626,2.71876 q -1.54688,1.40626 -1.54688,0.14063 0,-0.375 0.42188,-0.93751 2.20313,-3.09376 4.68751,-5.85939 0.75001,-0.79688 1.45313,-0.79688 0.75001,0 2.20314,1.03126 2.15625,0.5625 2.39063,0.70312 1.07813,0.65626 1.07813,2.43751 0,0.84375 -0.1875,1.92188 z m 61.87519,16.92193 q -3.04688,4.54689 -9.09378,16.0313 -0.5625,1.03125 -0.70312,1.07813 -0.42188,0.23437 -1.96876,-0.23438 -3.23438,-0.98438 -3.23438,-1.875 0,-0.51563 0.42187,-1.50001 3.51564,-8.20315 6.00002,-17.48443 2.53126,-9.32815 2.43751,-14.29692 0,-1.64063 -1.17188,-1.64063 -0.79688,0 -1.87501,0.89063 -3.98438,3.23439 -10.31253,12.56254 -7.59377,11.25003 -10.73441,21.04694 -0.32812,1.125 -0.5625,1.26563 -0.28125,0.14062 -1.35938,-0.23438 -1.59375,-0.5625 -3.04688,-1.59375 -0.70313,-0.51563 -0.70313,-1.07813 0,-0.0937 0.70313,-1.82813 6.14064,-15.37505 6.14064,-29.76572 0,-1.45313 -0.84375,-1.45313 -0.60938,0 -1.54688,0.79688 -5.01564,4.21876 -11.15628,14.5313 -5.90627,9.84378 -8.81253,18.4688 -0.75,2.20313 -1.54688,2.20313 -0.9375,0 -3.84376,-2.10938 -0.75001,-0.42187 -0.75001,-0.89062 0,-0.51563 1.03126,-1.59376 1.92188,-4.07814 4.35939,-14.06254 2.76563,-11.39066 2.39063,-16.54693 -0.70313,0.70313 -2.39063,2.34376 -1.68751,1.59375 -2.53126,2.43751 -0.60938,0.60937 -1.07813,0.60937 -0.70313,0 -0.70313,-0.9375 0,-0.75 0.51563,-1.3125 2.62501,-2.71876 5.20314,-6.4219 0.9375,-1.3125 1.64063,-1.3125 0.51563,0 2.01563,1.5 1.17188,0.42188 2.34376,0.84375 0.98438,0.46875 0.98438,1.73438 0,0.375 -0.0937,0.79688 -1.17188,9.0469 -3.60939,16.87505 8.2969,-14.90629 15.42192,-21.18756 0.98438,-0.89063 1.92188,-0.89063 0.98438,0 3.00001,1.26563 1.92188,0.84375 2.53126,1.5 0.70313,0.84376 0.70313,2.62501 0,9.56253 -2.20313,17.01568 9.14065,-14.48442 16.64067,-21.51569 0.98438,-0.93751 2.06251,-0.93751 1.40625,0 3.46876,1.87501 3.65626,0.5625 3.46876,4.45314 -0.5625,11.29691 -4.87501,21.84382 2.34375,-2.76564 3.65626,-4.78127 0.60937,-0.98438 1.40625,-0.98438 0.70313,0 0.70313,0.75001 0,0.46875 -0.42188,1.125 z m 29.29696,1.59376 q -11.39066,14.57817 -16.0313,14.57817 -2.20313,0 -5.57814,-3.04689 -3.51564,-1.64063 -3.51564,-4.40626 0,-0.51563 0.0937,-1.07813 0.84375,-6.4219 3.42189,-14.20317 -1.73438,-0.89063 -1.73438,-1.68751 0,-0.65625 0.98438,-0.65625 0.75,0 1.54688,0.42188 4.17188,-9.37503 7.50002,-13.31254 2.15626,-2.62501 3.89064,-2.62501 0.79687,0 3.93751,1.35938 -0.23438,-1.40626 0.79688,-1.64063 0.0469,0 2.20313,0 2.01563,0 2.01563,0.70313 0,0.14062 -0.14063,0.79687 -0.14062,0.65626 -0.14062,1.21876 0,1.6875 0.0469,4.17188 0.0469,2.48439 0.0469,3.32814 0,5.81252 -3.18751,8.1094 -2.90626,2.10938 -6.56252,2.10938 -1.92188,0 -6.37502,-1.03125 -0.79688,1.45313 -1.78126,5.67189 -1.3125,5.34377 -1.21875,9.46878 0.0469,2.43751 1.54688,2.43751 0.5625,0 1.45313,-0.28125 5.43751,-1.92188 15.14067,-11.71879 0.60938,-0.60938 1.21875,-0.60938 0.89063,0 0.89063,0.84376 0,0.51562 -0.46875,1.07813 z m -5.48439,-20.71882 q 0,-1.82813 -0.79688,-1.82813 -0.51563,0 -1.5,0.75 -4.59377,3.70314 -8.06253,12.98442 0.9375,0.14062 3.28126,0.28125 3.79689,0.14062 5.67189,-1.73438 1.40626,-1.40626 1.54688,-4.64064 -0.14062,2.39063 -0.14062,-5.81252 z"
         id="path6" />
    </g>
    <g
       id="text1-6"
       style="font-size:96.0003px;font-family:'Berlin Sans FB';-inkscape-font-specification:'Berlin Sans FB, Normal';white-space:pre;fill:#9d6d54;fill-opacity:1;fill-rule:evenodd;stroke:#5b2617;stroke-width:0;stroke-linecap:round;paint-order:markers fill stroke"
       transform="matrix(0.26458333,0,0,0.26458333,0.53596603,-0.90555427)"
       aria-label="AI Storytime">
      <path
         style="font-family:'High Tower Text';-inkscape-font-specification:'High Tower Text, Normal';fill:#9d6d54;fill-opacity:1"
         d="m 165.62912,474.54008 q -0.28125,1.26563 -0.60937,1.5 -0.28125,0.1875 -1.31251,-0.0937 -6.70314,-1.21875 -19.59381,-0.28125 -2.4375,0.1875 -2.67188,-0.9375 -0.23438,-1.3125 1.54688,-2.01563 5.06251,-2.06251 5.06251,-3.84376 0,-0.70313 -0.5625,-2.01564 -3.46876,-8.2969 -5.76564,-13.35941 -3.32814,0.1875 -11.71879,0.1875 -6.93752,0 -11.81253,-0.375 -1.64063,4.03126 -4.59377,11.25003 -0.65625,1.64063 -0.65625,2.95314 0,2.625 2.85938,3.84376 4.40627,1.875 4.31252,2.85938 -0.0937,1.59376 -2.95314,1.26563 -8.81252,-0.9375 -16.31255,0.5625 -1.968753,0.42188 -2.203128,-1.40625 -0.187501,-1.21875 3.046888,-2.62501 3.46876,-1.45313 5.85939,-6.70315 9.14065,-19.82818 11.81254,-26.06258 6.46877,-14.95317 9.14065,-24.42195 0.375,-1.45313 3.70314,-2.71875 0.79687,-0.28126 2.01563,2.71875 10.12503,24.37508 22.68757,52.12517 2.01563,4.40626 6.79689,5.85939 2.15626,0.60938 1.92188,1.73438 z m -25.4532,-24.7032 q -3.09376,-7.03127 -9.65628,-21.79695 -0.375,-0.79687 -0.84375,-0.79687 -0.46875,0 -0.79688,0.79687 l -8.95315,21.60945 q 5.01564,0.375 11.25003,0.375 3.84376,0 9.00003,-0.1875 z m 59.57831,-35.01574 q 0,1.17188 -2.53126,1.92188 -5.67189,1.68751 -5.67189,4.40627 v 45.60951 q 0,4.40627 5.20314,5.34377 2.57814,0.46875 2.57814,1.82813 0,1.17188 -0.46876,1.45313 -0.42187,0.28125 -2.39063,0.1875 -12.37504,-0.51562 -19.12506,0 -1.73438,0.14063 -2.01563,-0.65625 -0.0937,-0.32813 -0.0937,-0.98438 0,-0.9375 2.10938,-1.40625 3.93751,-0.89063 4.54689,-1.26563 1.50001,-0.9375 1.50001,-3.84376 v -45.98452 q 0,-3.89064 -5.25002,-4.78127 -2.20313,-0.375 -2.20313,-1.35938 0,-1.35937 0.32812,-1.64063 0.375,-0.32812 1.68751,-0.1875 9.14065,0.98438 18.89068,-0.1875 1.82813,-0.23437 2.15626,-0.14062 0.75,0.23437 0.75,1.6875 z"
         id="path5-0" />
      <path
         style="font-family:Pristina;-inkscape-font-specification:'Pristina, Normal';fill:#9d6d54;fill-opacity:1"
         d="m 291.39515,418.24303 q -1.82813,6.42189 -4.96877,11.15628 -1.40625,2.10939 -2.67188,2.10939 -1.21876,0 -4.26564,-2.01564 -0.9375,-0.60937 -0.9375,-1.26562 0,-0.98438 1.64063,-1.40626 1.21875,-0.375 2.76563,-4.26564 1.45313,-3.70313 1.45313,-5.81252 0,-2.20313 -1.73438,-2.20313 -0.60938,0 -1.54688,0.1875 -1.82813,0.28125 -7.87502,2.48439 -0.70313,0.23437 -1.26563,0.23437 -1.40626,0 -1.40626,-0.9375 0,-0.89063 1.45313,-1.59376 5.25002,-2.625 10.35941,-4.40626 1.64063,-0.60938 2.34376,-0.60938 1.07812,0 2.8125,3.00001 2.62501,0.79688 3.23439,1.17188 1.03125,0.60938 1.03125,1.87501 0,0.89062 -0.42187,2.29688 z m -14.01567,43.03138 q 0,8.4844 -8.62503,13.64067 -2.48438,3.89064 -6.42189,3.84376 -6.9844,-0.0937 -15.56255,-6.23439 -7.3594,-5.25002 -10.17191,-10.12503 -2.67188,-4.54689 -2.67188,-5.71877 0,-1.45313 2.10938,-3.28126 1.96876,-1.73438 3.09376,-1.73438 1.07813,0 1.07813,1.40625 0,0.60938 -0.23438,1.50001 2.48438,6.75002 10.50003,12.56254 8.01565,5.81251 14.5313,5.76564 5.76564,-0.0469 5.76564,-7.87503 0,-4.31251 -6.75002,-17.20317 -6.70314,-12.93754 -6.70314,-18.51569 0,-3.65626 2.0625,-6.51564 1.73438,-2.39063 6.09377,-5.67189 0.79688,-0.60938 1.59376,-0.60938 1.26563,0 1.26563,1.07813 0,0.75 -0.84376,1.54688 -3.60938,3.42188 -3.60938,8.34377 0,5.48439 6.75002,18.09381 6.75002,12.60941 6.75002,15.70317 z m 34.35947,-45.60951 q 1.3125,0.70312 1.3125,1.59375 0,0.60938 -0.89062,0.60938 -0.1875,0 -0.60938,-0.0469 -0.375,-0.0937 -0.5625,-0.0937 -1.78126,0 -4.31252,3.89064 -2.25,3.46876 -6.23439,15.0938 -0.375,1.03125 -0.28125,1.21875 0.14062,0.32813 1.21875,0.375 2.76564,0.23438 7.40628,-0.1875 1.59375,-0.14062 1.59375,1.35938 0,1.03125 -1.21875,1.26563 -0.98438,0.14062 -10.35941,0.84375 -5.62502,16.45318 -6.84377,27.84384 -0.0469,0.60937 -0.0469,1.07813 0,1.59375 0.79688,1.59375 1.26563,0 7.64065,-6.14064 0.75,-0.75001 1.45313,-0.75001 0.60938,0 0.75,0.51563 0.14063,0.5625 -0.42188,1.31251 -3.79688,5.01564 -7.45314,8.53127 -1.54688,1.45313 -2.57814,1.45313 -1.03125,0 -3.18751,-1.64063 -2.67188,-0.70313 -2.67188,-2.81251 0,-0.32812 0.0937,-0.75 1.73438,-12.09379 6.7969,-29.76572 -2.48439,-0.32812 -4.50002,-0.65625 -0.89062,-0.14062 -0.89062,-1.125 0,-1.07813 0.9375,-1.31251 0.9375,-0.23437 3.46876,-1.03125 1.54688,-0.51563 3.00001,-1.40625 5.01564,-15.51568 7.87502,-20.10944 1.64063,-2.62501 3.51564,-2.62501 1.78125,0 5.20314,1.87501 z m 26.01571,30.14071 q -0.0937,4.17189 -2.01563,11.06254 -3.04688,10.87503 -8.62503,16.87505 -2.95313,3.18751 -6.56252,3.18751 -1.40625,0 -3.60938,-0.60938 -4.40627,-0.28125 -7.1719,-2.76563 -3.00001,-2.71876 -2.81251,-6.9844 0.1875,-4.96876 3.42189,-13.87504 3.56251,-9.70315 7.40627,-13.96879 1.82813,-2.06251 3.00001,-2.06251 1.59375,0 5.15627,3.28126 0.98437,-0.46875 4.03126,-1.73438 1.54688,-0.51563 2.34375,-0.51563 1.82814,0 4.07814,3.42189 1.45313,2.10938 1.35938,4.68751 z m -5.39064,1.35938 q 0.32813,-3.14063 0.32813,-3.98438 0,-1.96876 -1.21876,-1.96876 -0.46875,0 -1.21875,0.1875 l -7.26565,2.95314 q -1.26563,0.51562 -1.45313,0.51562 -0.375,0 -0.75,-0.89063 -2.71876,3.32814 -5.06252,9.60941 -1.82813,4.92189 -2.53125,8.81253 -0.51563,2.625 -0.51563,4.78126 0,7.21877 4.45314,7.03127 1.78125,-0.0469 3.84376,-1.40625 3.93751,-2.67189 7.3594,-10.68753 3.28126,-7.5469 4.03126,-14.95318 z m 38.34387,-6.93752 q 0,6.14065 -1.64063,11.71879 -0.51562,1.6875 -1.40625,1.6875 -0.65625,0 -2.90626,-1.875 -1.125,-0.9375 -0.5625,-2.67189 1.3125,-4.26563 1.3125,-6.84377 0,-0.89062 -0.375,-0.89062 -0.5625,0 -1.82813,1.6875 -9.75003,12.70317 -14.57817,28.50009 -1.54688,5.01564 -2.62501,5.01564 -0.42188,0 -3.70314,-1.64063 -1.59375,-0.79688 -1.07812,-3.09376 3.70313,-16.2188 7.96877,-27.37508 -3.46876,3.65626 -4.40626,5.01564 -0.375,0.5625 -1.03126,0.5625 -0.79687,0 -0.79687,-0.70313 0,-0.42188 0.375,-0.9375 2.29688,-2.76564 6.14064,-8.43753 1.17188,-2.06251 2.34376,-2.06251 0.84375,0 3.42188,1.31251 1.45313,0.75 0.46876,2.01563 -1.03126,1.35938 -3.89064,9.60941 -2.71876,8.01564 -3.75001,12.56253 6.37502,-14.20316 14.48442,-25.0782 1.54688,-2.06251 2.48438,-2.06251 0.84375,0 2.29688,1.12501 1.96876,0.23437 2.48438,0.60938 0.79688,0.5625 0.79688,2.25 z m 34.92198,2.81251 q -6.51564,30.04697 -12.23441,44.95327 -11.06253,28.96884 -25.40633,28.96884 -8.39065,0 -18.04693,-9.14066 -0.84375,-0.79688 -0.84375,-1.6875 0,-1.40626 1.3125,-1.40626 0.65625,0 1.26563,0.51563 7.64065,6.51564 13.64067,6.51564 11.01566,0 20.01569,-18.37505 7.07814,-14.39067 12.32816,-38.62512 0.32812,-1.73438 1.07813,-5.29689 -4.92189,8.01565 -11.01566,15.79692 -5.8594,7.50002 -9.23441,10.31253 -1.875,1.54688 -3,1.54688 -0.89063,0 -1.82814,-0.98438 -0.98437,-1.26563 -2.01563,-2.48438 -0.46875,-0.5625 -0.46875,-1.03125 0,-0.0469 0,-0.0937 0.0937,-0.5625 0.84375,-0.79688 2.25001,-3.04688 4.21877,-13.17192 1.5,-7.96877 2.0625,-15.14067 0.0937,-1.6875 -0.42187,-1.6875 -0.14063,0 -2.20313,1.6875 -3.28126,2.76564 -3.56252,2.76564 -0.65625,0 -0.65625,-0.65626 0,-0.32812 0.28125,-0.65625 0.79688,-0.98438 3.56251,-4.92189 2.48439,-3.51563 3.32814,-3.51563 0.65625,0 1.78126,0.5625 2.39063,-0.375 2.67188,-0.375 1.59375,0 1.59375,2.4375 0,4.07814 -2.34375,15.98443 -2.34376,11.85941 -3.84377,15.32817 4.68752,-3.70314 12.18754,-14.53129 7.31252,-10.54691 9.09378,-15.89068 0.0937,-3.14063 1.35938,-3.14063 0.98438,0 3.65626,2.01563 1.50001,1.125 0.84375,4.21876 z m 31.21885,-27.37508 q 1.31251,0.70312 1.31251,1.59375 0,0.60938 -0.89063,0.60938 -0.1875,0 -0.60938,-0.0469 -0.375,-0.0937 -0.5625,-0.0937 -1.78126,0 -4.31251,3.89064 -2.25001,3.46876 -6.2344,15.0938 -0.375,1.03125 -0.28125,1.21875 0.14063,0.32813 1.21875,0.375 2.76564,0.23438 7.40628,-0.1875 1.59375,-0.14062 1.59375,1.35938 0,1.03125 -1.21875,1.26563 -0.98438,0.14062 -10.35941,0.84375 -5.62502,16.45318 -6.84377,27.84384 -0.0469,0.60937 -0.0469,1.07813 0,1.59375 0.79688,1.59375 1.26563,0 7.64065,-6.14064 0.75,-0.75001 1.45313,-0.75001 0.60938,0 0.75,0.51563 0.14063,0.5625 -0.42187,1.31251 -3.79689,5.01564 -7.45315,8.53127 -1.54688,1.45313 -2.57813,1.45313 -1.03126,0 -3.18751,-1.64063 -2.67189,-0.70313 -2.67189,-2.81251 0,-0.32812 0.0937,-0.75 1.73438,-12.09379 6.7969,-29.76572 -2.48438,-0.32812 -4.50002,-0.65625 -0.89062,-0.14062 -0.89062,-1.125 0,-1.07813 0.9375,-1.31251 0.9375,-0.23437 3.46876,-1.03125 1.54688,-0.51563 3.00001,-1.40625 5.01564,-15.51568 7.87502,-20.10944 1.64063,-2.62501 3.51564,-2.62501 1.78126,0 5.20314,1.87501 z m 15.75004,7.40627 q 0.75,0.5625 0.75,1.26563 0,1.35938 -4.03126,4.21876 -2.67188,1.82813 -5.15626,1.31251 -1.40626,-0.28126 -2.43751,-1.03126 -0.32813,-0.28125 -0.51563,-0.5625 -0.14062,-0.32813 -0.0469,-0.51563 0.14062,-0.1875 0.5625,-0.0937 4.31251,-3.75001 5.67189,-5.39064 1.07813,-1.21875 1.54688,-1.21875 0.84375,0 3.65626,2.01563 z m -6.60939,20.53131 q -1.12501,6.32815 -5.8594,21.04694 1.35938,-1.21875 3.75001,-4.45314 0.32813,-0.42187 0.65626,-0.42187 0.75,0 0.1875,1.3125 -0.23438,0.51563 -3.93752,6.4219 -2.8125,4.50001 -4.12501,7.96877 -0.42187,1.07813 -1.54688,1.07813 -1.125,0 -3.04688,-1.07813 -1.21876,-0.65625 -1.21876,-0.98438 0,-0.28125 0.51563,-1.21875 2.53126,-4.45314 5.62502,-14.9063 2.95313,-10.12503 3.32813,-15.04692 0.14063,-2.10938 -0.42187,-2.10938 -0.42188,0 -1.50001,1.03125 l -2.90626,2.71876 q -1.54688,1.40626 -1.54688,0.14063 0,-0.375 0.42188,-0.93751 2.20313,-3.09376 4.68751,-5.85939 0.75001,-0.79688 1.45313,-0.79688 0.75001,0 2.20314,1.03126 2.15625,0.5625 2.39063,0.70312 1.07813,0.65626 1.07813,2.43751 0,0.84375 -0.1875,1.92188 z m 61.87519,16.92193 q -3.04688,4.54689 -9.09378,16.0313 -0.5625,1.03125 -0.70312,1.07813 -0.42188,0.23437 -1.96876,-0.23438 -3.23438,-0.98438 -3.23438,-1.875 0,-0.51563 0.42187,-1.50001 3.51564,-8.20315 6.00002,-17.48443 2.53126,-9.32815 2.43751,-14.29692 0,-1.64063 -1.17188,-1.64063 -0.79688,0 -1.87501,0.89063 -3.98438,3.23439 -10.31253,12.56254 -7.59377,11.25003 -10.73441,21.04694 -0.32812,1.125 -0.5625,1.26563 -0.28125,0.14062 -1.35938,-0.23438 -1.59375,-0.5625 -3.04688,-1.59375 -0.70313,-0.51563 -0.70313,-1.07813 0,-0.0937 0.70313,-1.82813 6.14064,-15.37505 6.14064,-29.76572 0,-1.45313 -0.84375,-1.45313 -0.60938,0 -1.54688,0.79688 -5.01564,4.21876 -11.15628,14.5313 -5.90627,9.84378 -8.81253,18.4688 -0.75,2.20313 -1.54688,2.20313 -0.9375,0 -3.84376,-2.10938 -0.75001,-0.42187 -0.75001,-0.89062 0,-0.51563 1.03126,-1.59376 1.92188,-4.07814 4.35939,-14.06254 2.76563,-11.39066 2.39063,-16.54693 -0.70313,0.70313 -2.39063,2.34376 -1.68751,1.59375 -2.53126,2.43751 -0.60938,0.60937 -1.07813,0.60937 -0.70313,0 -0.70313,-0.9375 0,-0.75 0.51563,-1.3125 2.62501,-2.71876 5.20314,-6.4219 0.9375,-1.3125 1.64063,-1.3125 0.51563,0 2.01563,1.5 1.17188,0.42188 2.34376,0.84375 0.98438,0.46875 0.98438,1.73438 0,0.375 -0.0937,0.79688 -1.17188,9.0469 -3.60939,16.87505 8.2969,-14.90629 15.42192,-21.18756 0.98438,-0.89063 1.92188,-0.89063 0.98438,0 3.00001,1.26563 1.92188,0.84375 2.53126,1.5 0.70313,0.84376 0.70313,2.62501 0,9.56253 -2.20313,17.01568 9.14065,-14.48442 16.64067,-21.51569 0.98438,-0.93751 2.06251,-0.93751 1.40625,0 3.46876,1.87501 3.65626,0.5625 3.46876,4.45314 -0.5625,11.29691 -4.87501,21.84382 2.34375,-2.76564 3.65626,-4.78127 0.60937,-0.98438 1.40625,-0.98438 0.70313,0 0.70313,0.75001 0,0.46875 -0.42188,1.125 z m 29.29696,1.59376 q -11.39066,14.57817 -16.0313,14.57817 -2.20313,0 -5.57814,-3.04689 -3.51564,-1.64063 -3.51564,-4.40626 0,-0.51563 0.0937,-1.07813 0.84375,-6.4219 3.42189,-14.20317 -1.73438,-0.89063 -1.73438,-1.68751 0,-0.65625 0.98438,-0.65625 0.75,0 1.54688,0.42188 4.17188,-9.37503 7.50002,-13.31254 2.15626,-2.62501 3.89064,-2.62501 0.79687,0 3.93751,1.35938 -0.23438,-1.40626 0.79688,-1.64063 0.0469,0 2.20313,0 2.01563,0 2.01563,0.70313 0,0.14062 -0.14063,0.79687 -0.14062,0.65626 -0.14062,1.21876 0,1.6875 0.0469,4.17188 0.0469,2.48439 0.0469,3.32814 0,5.81252 -3.18751,8.1094 -2.90626,2.10938 -6.56252,2.10938 -1.92188,0 -6.37502,-1.03125 -0.79688,1.45313 -1.78126,5.67189 -1.3125,5.34377 -1.21875,9.46878 0.0469,2.43751 1.54688,2.43751 0.5625,0 1.45313,-0.28125 5.43751,-1.92188 15.14067,-11.71879 0.60938,-0.60938 1.21875,-0.60938 0.89063,0 0.89063,0.84376 0,0.51562 -0.46875,1.07813 z m -5.48439,-20.71882 q 0,-1.82813 -0.79688,-1.82813 -0.51563,0 -1.5,0.75 -4.59377,3.70314 -8.06253,12.98442 0.9375,0.14062 3.28126,0.28125 3.79689,0.14062 5.67189,-1.73438 1.40626,-1.40626 1.54688,-4.64064 -0.14062,2.39063 -0.14062,-5.81252 z"
         id="path6-1" />
    </g>
  </g>
</svg>
