<?xml version="1.0" encoding="UTF-8" standalone="no"?>
<!-- Generator: Adobe Illustrator 16.0.0, SVG Export Plug-In . SVG Version: 6.00 Build 0)  -->

<svg
   width="64"
   height="64"
   viewBox="0 0 64 64"
   fill="none"
   version="1.1"
   id="svg2"
   sodipodi:docname="favicon.svg"
   inkscape:version="1.3 (0e150ed6c4, 2023-07-21)"
   inkscape:export-filename="favicon.png"
   inkscape:export-xdpi="96"
   inkscape:export-ydpi="96"
   xmlns:inkscape="http://www.inkscape.org/namespaces/inkscape"
   xmlns:sodipodi="http://sodipodi.sourceforge.net/DTD/sodipodi-0.dtd"
   xmlns="http://www.w3.org/2000/svg"
   xmlns:svg="http://www.w3.org/2000/svg">
  <defs
     id="defs2">
    <filter
       id="mask-powermask-path-effect12_inverse"
       inkscape:label="filtermask-powermask-path-effect12"
       style="color-interpolation-filters:sRGB"
       height="100"
       width="100"
       x="-50"
       y="-50">
      <feColorMatrix
         id="mask-powermask-path-effect12_primitive1"
         values="1"
         type="saturate"
         result="fbSourceGraphic" />
      <feColorMatrix
         id="mask-powermask-path-effect12_primitive2"
         values="-1 0 0 0 1 0 -1 0 0 1 0 0 -1 0 1 0 0 0 1 0 "
         in="fbSourceGraphic" />
    </filter>
    <filter
       id="mask-powermask-path-effect13_inverse"
       inkscape:label="filtermask-powermask-path-effect13"
       style="color-interpolation-filters:sRGB"
       height="100"
       width="100"
       x="-50"
       y="-50">
      <feColorMatrix
         id="mask-powermask-path-effect13_primitive1"
         values="1"
         type="saturate"
         result="fbSourceGraphic" />
      <feColorMatrix
         id="mask-powermask-path-effect13_primitive2"
         values="-1 0 0 0 1 0 -1 0 0 1 0 0 -1 0 1 0 0 0 1 0 "
         in="fbSourceGraphic" />
    </filter>
    <filter
       id="mask-powermask-path-effect14_inverse"
       inkscape:label="filtermask-powermask-path-effect14"
       style="color-interpolation-filters:sRGB"
       height="100"
       width="100"
       x="-50"
       y="-50">
      <feColorMatrix
         id="mask-powermask-path-effect14_primitive1"
         values="1"
         type="saturate"
         result="fbSourceGraphic" />
      <feColorMatrix
         id="mask-powermask-path-effect14_primitive2"
         values="-1 0 0 0 1 0 -1 0 0 1 0 0 -1 0 1 0 0 0 1 0 "
         in="fbSourceGraphic" />
    </filter>
    <filter
       id="mask-powermask-path-effect15_inverse"
       inkscape:label="filtermask-powermask-path-effect15"
       style="color-interpolation-filters:sRGB"
       height="100"
       width="100"
       x="-50"
       y="-50">
      <feColorMatrix
         id="mask-powermask-path-effect15_primitive1"
         values="1"
         type="saturate"
         result="fbSourceGraphic" />
      <feColorMatrix
         id="mask-powermask-path-effect15_primitive2"
         values="-1 0 0 0 1 0 -1 0 0 1 0 0 -1 0 1 0 0 0 1 0 "
         in="fbSourceGraphic" />
    </filter>
    <filter
       id="mask-powermask-path-effect16_inverse"
       inkscape:label="filtermask-powermask-path-effect16"
       style="color-interpolation-filters:sRGB"
       height="100"
       width="100"
       x="-50"
       y="-50">
      <feColorMatrix
         id="mask-powermask-path-effect16_primitive1"
         values="1"
         type="saturate"
         result="fbSourceGraphic" />
      <feColorMatrix
         id="mask-powermask-path-effect16_primitive2"
         values="-1 0 0 0 1 0 -1 0 0 1 0 0 -1 0 1 0 0 0 1 0 "
         in="fbSourceGraphic" />
    </filter>
    <filter
       id="mask-powermask-path-effect17_inverse"
       inkscape:label="filtermask-powermask-path-effect17"
       style="color-interpolation-filters:sRGB"
       height="100"
       width="100"
       x="-50"
       y="-50">
      <feColorMatrix
         id="mask-powermask-path-effect17_primitive1"
         values="1"
         type="saturate"
         result="fbSourceGraphic" />
      <feColorMatrix
         id="mask-powermask-path-effect17_primitive2"
         values="-1 0 0 0 1 0 -1 0 0 1 0 0 -1 0 1 0 0 0 1 0 "
         in="fbSourceGraphic" />
    </filter>
  </defs>
  <sodipodi:namedview
     id="namedview2"
     pagecolor="#ffffff"
     bordercolor="#999999"
     borderopacity="1"
     inkscape:showpageshadow="0"
     inkscape:pageopacity="0"
     inkscape:pagecheckerboard="0"
     inkscape:deskcolor="#d1d1d1"
     inkscape:zoom="12.59375"
     inkscape:cx="31.682382"
     inkscape:cy="31.801489"
     inkscape:window-width="1920"
     inkscape:window-height="1009"
     inkscape:window-x="-8"
     inkscape:window-y="-8"
     inkscape:window-maximized="1"
     inkscape:current-layer="svg2" />
  <path
     id="path3-8-7-8"
     style="fill:#ae7a4e;fill-opacity:1;fill-rule:evenodd;stroke:#5b2617;stroke-width:0;stroke-linecap:round;paint-order:markers fill stroke"
     inkscape:label="dot"
     d="M 5.9726562 19.242188 A 29.285084 29.693081 0 0 0 2.8339844 32.478516 A 29.285084 29.693081 0 0 0 28.511719 61.910156 A 25.330257 25.683155 0 0 1 6.7890625 36.488281 A 25.330257 25.683155 0 0 1 10.400391 23.376953 A 9.7667494 9.7667494 0 0 1 9.2089844 22.726562 A 9.7667494 9.7667494 0 0 1 8.09375 21.892578 A 9.7667494 9.7667494 0 0 1 7.1074219 20.90625 A 9.7667494 9.7667494 0 0 1 6.2734375 19.791016 A 9.7667494 9.7667494 0 0 1 5.9726562 19.242188 z " />
  <path
     id="path3"
     style="fill:#ae7a4e;fill-opacity:1;fill-rule:evenodd;stroke:#5b2617;stroke-width:0;stroke-linecap:round;paint-order:markers fill stroke"
     inkscape:label="dot"
     d="M 32.119141 2.7851562 A 29.285084 29.693081 0 0 0 19.142578 5.9257812 A 9.7667494 9.7667494 0 0 1 19.509766 6.1347656 A 9.7667494 9.7667494 0 0 1 19.914062 6.390625 A 9.7667494 9.7667494 0 0 1 20.306641 6.6660156 A 9.7667494 9.7667494 0 0 1 20.685547 6.9609375 A 9.7667494 9.7667494 0 0 1 21.046875 7.2753906 A 9.7667494 9.7667494 0 0 1 21.394531 7.6054688 A 9.7667494 9.7667494 0 0 1 21.724609 7.953125 A 9.7667494 9.7667494 0 0 1 22.039062 8.3144531 A 9.7667494 9.7667494 0 0 1 22.333984 8.6933594 A 9.7667494 9.7667494 0 0 1 22.609375 9.0859375 A 9.7667494 9.7667494 0 0 1 22.865234 9.4902344 A 9.7667494 9.7667494 0 0 1 23.101562 9.90625 A 9.7667494 9.7667494 0 0 1 23.318359 10.335938 A 9.7667494 9.7667494 0 0 1 23.511719 10.773438 A 9.7667494 9.7667494 0 0 1 23.685547 11.220703 A 9.7667494 9.7667494 0 0 1 23.835938 11.675781 A 9.7667494 9.7667494 0 0 1 23.962891 12.138672 A 9.7667494 9.7667494 0 0 1 23.976562 12.195312 A 25.330257 25.683155 0 0 1 32.119141 10.804688 A 25.330257 25.683155 0 0 1 57.449219 36.488281 A 25.330257 25.683155 0 0 1 38.269531 61.398438 A 29.285084 29.693081 0 0 0 61.404297 32.478516 A 29.285084 29.693081 0 0 0 32.119141 2.7851562 z " />
  <circle
     style="fill:#417a42;fill-opacity:1;fill-rule:evenodd;stroke:#5b2617;stroke-width:0;stroke-linecap:round;paint-order:markers fill stroke"
     id="path1"
     cx="32.833748"
     cy="48.555836"
     r="13.300248" />
</svg>
